<svg width="21" height="26" viewBox="0 0 21 26" fill="none" xmlns="http://www.w3.org/2000/svg">
<path d="M10.5013 22.1709C10.8235 22.1709 11.0854 21.9089 11.0854 21.5867V7.58325C11.0854 7.26106 10.8235 6.99912 10.5013 6.99912C10.1791 6.99912 9.91717 7.26106 9.91717 7.58325V21.5841C9.91717 21.9089 10.1791 22.1709 10.5013 22.1709ZM13.9825 22.1682C14.3047 22.1813 14.5745 21.9273 14.5876 21.6077L15.4337 7.62254C15.4468 7.30035 15.1927 7.03055 14.8731 7.01746C14.5509 7.00698 14.2811 7.25844 14.268 7.58063L13.422 21.5684C13.4089 21.888 13.6603 22.1578 13.9825 22.1682ZM20.4185 3.49956H14.585V1.16827C14.585 0.523886 14.0611 0 13.4193 0H7.58325C6.93887 0 6.41761 0.523886 6.41761 1.16827V3.50218H0.584133C0.261943 3.50218 0 3.76412 0 4.08631C0 4.4085 0.261943 4.66783 0.584133 4.66783H1.74978L2.91543 23.3365C3.10403 24.6148 3.96058 25.6704 5.24934 25.6704H15.7506C17.0394 25.6704 17.8645 24.6017 18.0846 23.3365L19.2502 4.66783H20.4158C20.738 4.66783 21 4.40588 21 4.08631C21.0026 3.7615 20.7407 3.49956 20.4185 3.49956ZM7.58325 1.16827H13.4167V3.50218H7.58325V1.16827ZM16.9189 23.3365C16.8403 23.9521 16.395 24.5022 15.7533 24.5022H5.24934C4.60496 24.5022 4.17013 23.9573 4.08369 23.3365L2.91805 4.66783H18.0872L16.9189 23.3365ZM7.0227 22.1709C7.34489 22.1578 7.59635 21.888 7.58325 21.5658L6.72408 7.58063C6.71098 7.25844 6.44118 7.00698 6.11899 7.02008C5.7968 7.03317 5.54534 7.30297 5.55843 7.62516L6.41761 21.6103C6.4307 21.9299 6.70051 22.1813 7.0227 22.1709Z" fill="current"/>
</svg>
