<svg width="34" height="34" viewBox="0 0 34 34" fill="none" xmlns="http://www.w3.org/2000/svg">
<path d="M17.9355 34C16.9637 33.9996 15.9935 33.9202 15.0345 33.7625C10.3435 32.9905 6.14993 30.3829 3.37468 26.5124C0.599435 22.6419 -0.530526 17.8249 0.232975 13.1195C0.660216 10.4408 1.6899 7.89473 3.24399 5.67435C4.79808 3.45398 6.83579 1.61753 9.20267 0.304207C9.602 0.0804492 10.057 -0.023581 10.5136 0.00448817C10.9701 0.0325574 11.4091 0.191545 11.7781 0.462542C12.1554 0.721405 12.4495 1.08464 12.6247 1.50805C12.7999 1.93146 12.8486 2.3968 12.7649 2.84747L11.4821 2.74851L12.6958 2.96622C12.0111 6.60891 12.651 10.3771 14.4994 13.5871C16.3479 16.7972 19.2824 19.2364 22.7707 20.4623C25.457 21.3973 28.347 21.5786 31.1286 20.9868C31.5687 20.9002 32.0243 20.9386 32.4438 21.0976C32.8634 21.2567 33.2303 21.5302 33.5031 21.8872C33.776 22.2442 33.9441 22.6706 33.9883 23.1182C34.0325 23.5658 33.9511 24.0169 33.7534 24.4207C32.2315 27.3064 29.9554 29.7224 27.1689 31.4099C24.3824 33.0974 21.1906 33.9927 17.9355 34ZM10.2684 2.5407C8.38099 3.61396 6.73994 5.07355 5.45193 6.82459C4.16393 8.57563 3.25779 10.5789 2.79245 12.7042C2.3271 14.8295 2.31295 17.0292 2.75092 19.1603C3.18889 21.2914 4.06918 23.3063 5.33455 25.0738C6.8597 27.2119 8.9021 28.9257 11.2696 30.054C13.6372 31.1824 16.252 31.6882 18.8682 31.5239C21.4843 31.3597 24.0158 30.5307 26.2245 29.1149C28.4332 27.6992 30.2464 25.7432 31.4937 23.4311C28.3198 24.071 25.0333 23.8524 21.9714 22.7978C17.9314 21.3771 14.5312 18.5544 12.3849 14.8394C10.2387 11.1245 9.48797 6.76222 10.2684 2.5407Z" fill="#E9E9E9"/>
</svg>
