<svg width="50" height="45" viewBox="0 0 50 45" fill="none" xmlns="http://www.w3.org/2000/svg">
<path d="M36.5156 3.6C37.8155 3.5989 39.1026 3.85944 40.3013 4.36634C41.5 4.87325 42.5863 5.61632 43.4964 6.552C45.3718 8.47149 46.423 11.0577 46.423 13.752C46.423 16.4463 45.3718 19.0325 43.4964 20.952L25 39.834L6.50357 20.952C4.62819 19.0325 3.57698 16.4463 3.57698 13.752C3.57698 11.0577 4.62819 8.47149 6.50357 6.552C7.41428 5.617 8.50065 4.87431 9.69923 4.36733C10.8978 3.86035 12.1846 3.59923 13.4844 3.59923C14.7842 3.59923 16.0709 3.86035 17.2695 4.36733C18.4681 4.87431 19.5545 5.617 20.4652 6.552L25 11.232L29.517 6.588C30.4244 5.64117 31.5119 4.88855 32.7144 4.37515C33.9169 3.86175 35.2097 3.59811 36.5156 3.6ZM36.5156 4.82914e-06C34.7403 -0.00151207 32.9825 0.354344 31.3454 1.04671C29.7083 1.73907 28.2247 2.75401 26.9818 4.032L25 6.048L23.0182 4.032C21.7737 2.75631 20.2898 1.74314 18.653 1.05155C17.0162 0.359954 15.2591 0.00377537 13.4844 0.00377537C11.7096 0.00377537 9.95258 0.359954 8.31575 1.05155C6.67891 1.74314 5.19499 2.75631 3.9505 4.032C1.41862 6.63053 0 10.1274 0 13.77C0 17.4126 1.41862 20.9095 3.9505 23.508L25 45L46.0495 23.508C48.5814 20.9095 50 17.4126 50 13.77C50 10.1274 48.5814 6.63053 46.0495 4.032C44.8053 2.75563 43.3215 1.74176 41.6847 1.04951C40.0478 0.357268 38.2907 0.000496977 36.5156 4.82914e-06Z" fill="current"/>
</svg>
