<svg width="38" height="38" viewBox="0 0 38 38" fill="none" xmlns="http://www.w3.org/2000/svg">
<mask id="mask0_68_15" style="mask-type:luminance" maskUnits="userSpaceOnUse" x="0" y="0" width="38" height="38">
<path d="M0 0H38V38H0V0Z" fill="white"/>
</mask>
<g mask="url(#mask0_68_15)">
<path d="M19 0C19.4199 0 19.8227 0.166815 20.1196 0.463748C20.4165 0.76068 20.5833 1.16341 20.5833 1.58333V7.91667C20.5833 8.33659 20.4165 8.73932 20.1196 9.03625C19.8227 9.33318 19.4199 9.5 19 9.5C18.5801 9.5 18.1773 9.33318 17.8804 9.03625C17.5835 8.73932 17.4167 8.33659 17.4167 7.91667V1.58333C17.4167 1.16341 17.5835 0.76068 17.8804 0.463748C18.1773 0.166815 18.5801 0 19 0ZM7.80425 5.56542C7.50563 5.277 7.10568 5.11741 6.69053 5.12102C6.27539 5.12462 5.87827 5.29114 5.5847 5.5847C5.29114 5.87827 5.12462 6.27539 5.12102 6.69053C5.11741 7.10568 5.277 7.50563 5.56542 7.80425L10.0431 12.2819C10.3417 12.5703 10.7417 12.7299 11.1568 12.7263C11.5719 12.7227 11.9691 12.5562 12.2626 12.2626C12.5562 11.9691 12.7227 11.5719 12.7263 11.1568C12.7299 10.7417 12.5703 10.3417 12.2819 10.0431L7.80425 5.56542ZM1.58333 17.4167C1.16341 17.4167 0.76068 17.5835 0.463748 17.8804C0.166815 18.1773 0 18.5801 0 19C0 19.4199 0.166815 19.8227 0.463748 20.1196C0.76068 20.4165 1.16341 20.5833 1.58333 20.5833H7.91667C8.33659 20.5833 8.73932 20.4165 9.03625 20.1196C9.33318 19.8227 9.5 19.4199 9.5 19C9.5 18.5801 9.33318 18.1773 9.03625 17.8804C8.73932 17.5835 8.33659 17.4167 7.91667 17.4167H1.58333ZM28.5 19C28.5 18.5801 28.6668 18.1773 28.9637 17.8804C29.2607 17.5835 29.6634 17.4167 30.0833 17.4167H36.4167C36.8366 17.4167 37.2393 17.5835 37.5363 17.8804C37.8332 18.1773 38 18.5801 38 19C38 19.4199 37.8332 19.8227 37.5363 20.1196C37.2393 20.4165 36.8366 20.5833 36.4167 20.5833H30.0833C29.6634 20.5833 29.2607 20.4165 28.9637 20.1196C28.6668 19.8227 28.5 19.4199 28.5 19ZM27.9569 25.7181C27.6583 25.4297 27.2583 25.2701 26.8432 25.2737C26.4281 25.2773 26.0309 25.4438 25.7374 25.7374C25.4438 26.0309 25.2773 26.4281 25.2737 26.8432C25.2701 27.2583 25.4297 27.6583 25.7181 27.9569L30.1957 32.4346C30.3418 32.5858 30.5165 32.7064 30.7097 32.7894C30.9029 32.8724 31.1106 32.9161 31.3209 32.9179C31.5311 32.9197 31.7396 32.8797 31.9342 32.8001C32.1288 32.7204 32.3055 32.6029 32.4542 32.4542C32.6029 32.3055 32.7204 32.1288 32.8001 31.9342C32.8797 31.7396 32.9197 31.5311 32.9179 31.3209C32.9161 31.1106 32.8724 30.9029 32.7894 30.7097C32.7064 30.5165 32.5858 30.3418 32.4346 30.1957L27.9569 25.7181ZM12.2819 27.9569C12.4331 27.8109 12.5538 27.6361 12.6367 27.443C12.7197 27.2498 12.7634 27.042 12.7652 26.8318C12.7671 26.6216 12.727 26.4131 12.6474 26.2185C12.5678 26.0239 12.4502 25.8471 12.3015 25.6985C12.1529 25.5498 11.9761 25.4322 11.7815 25.3526C11.5869 25.273 11.3784 25.2329 11.1682 25.2348C10.958 25.2366 10.7502 25.2803 10.557 25.3633C10.3639 25.4462 10.1891 25.5669 10.0431 25.7181L5.56542 30.1942C5.41419 30.3402 5.29357 30.5149 5.21059 30.7081C5.12761 30.9013 5.08393 31.109 5.0821 31.3193C5.08028 31.5295 5.12034 31.738 5.19995 31.9326C5.27956 32.1272 5.39713 32.304 5.54579 32.4526C5.69445 32.6013 5.87124 32.7189 6.06582 32.7985C6.26041 32.8781 6.4689 32.9181 6.67914 32.9163C6.88937 32.9145 7.09713 32.8708 7.29031 32.7878C7.48348 32.7048 7.65819 32.5842 7.80425 32.433L12.2819 27.9569ZM32.4346 7.80425C32.723 7.50563 32.8826 7.10568 32.879 6.69053C32.8754 6.27539 32.7089 5.87827 32.4153 5.5847C32.1217 5.29114 31.7246 5.12462 31.3095 5.12102C30.8943 5.11741 30.4944 5.277 30.1957 5.56542L25.7181 10.0431C25.5669 10.1891 25.4462 10.3639 25.3633 10.557C25.2803 10.7502 25.2366 10.958 25.2348 11.1682C25.2329 11.3784 25.273 11.5869 25.3526 11.7815C25.4322 11.9761 25.5498 12.1529 25.6985 12.3015C25.8471 12.4502 26.0239 12.5678 26.2185 12.6474C26.4131 12.727 26.6216 12.7671 26.8318 12.7652C27.042 12.7634 27.2498 12.7197 27.443 12.6367C27.6361 12.5538 27.8109 12.4331 27.9569 12.2819L32.4346 7.80425ZM20.5833 30.0833C20.5833 29.6634 20.4165 29.2607 20.1196 28.9637C19.8227 28.6668 19.4199 28.5 19 28.5C18.5801 28.5 18.1773 28.6668 17.8804 28.9637C17.5835 29.2607 17.4167 29.6634 17.4167 30.0833V36.4167C17.4167 36.8366 17.5835 37.2393 17.8804 37.5363C18.1773 37.8332 18.5801 38 19 38C19.4199 38 19.8227 37.8332 20.1196 37.5363C20.4165 37.2393 20.5833 36.8366 20.5833 36.4167V30.0833ZM19 11.0833C16.9004 11.0833 14.8867 11.9174 13.4021 13.4021C11.9174 14.8867 11.0833 16.9004 11.0833 19C11.0833 21.0996 11.9174 23.1133 13.4021 24.5979C14.8867 26.0826 16.9004 26.9167 19 26.9167C21.0996 26.9167 23.1133 26.0826 24.5979 24.5979C26.0826 23.1133 26.9167 21.0996 26.9167 19C26.9167 16.9004 26.0826 14.8867 24.5979 13.4021C23.1133 11.9174 21.0996 11.0833 19 11.0833Z" fill="#F2F2F2"/>
</g>
</svg>
