<svg width="20" height="27" viewBox="0 0 20 27" fill="none" xmlns="http://www.w3.org/2000/svg">
<path d="M16.943 15.0859C16.0696 16.8775 14.8874 18.6639 13.6763 20.2669C12.4689 21.865 11.2574 23.2484 10.3461 24.2333C10.2251 24.3642 10.1094 24.4878 10 24.6039C9.89057 24.4878 9.77495 24.3642 9.65386 24.2333C8.74263 23.2484 7.53113 21.865 6.32374 20.2669C5.11257 18.6639 3.93041 16.8775 3.05705 15.0859C2.17467 13.2757 1.66667 11.5795 1.66667 10.125C1.66667 5.4651 5.39763 1.6875 10 1.6875C14.6024 1.6875 18.3333 5.4651 18.3333 10.125C18.3333 11.5795 17.8253 13.2757 16.943 15.0859ZM10 27C10 27 20 17.4044 20 10.125C20 4.53312 15.5228 0 10 0C4.47715 0 0 4.53312 0 10.125C0 17.4044 10 27 10 27Z" fill="current"/>
<path d="M10 13.5C8.15905 13.5 6.66667 11.989 6.66667 10.125C6.66667 8.26104 8.15905 6.75 10 6.75C11.8409 6.75 13.3333 8.26104 13.3333 10.125C13.3333 11.989 11.8409 13.5 10 13.5ZM10 15.1875C12.7614 15.1875 15 12.9209 15 10.125C15 7.32906 12.7614 5.0625 10 5.0625C7.23858 5.0625 5 7.32906 5 10.125C5 12.9209 7.23858 15.1875 10 15.1875Z" fill="current"/>
</svg>
