<svg width="999" height="256" viewBox="0 0 999 256" fill="none" xmlns="http://www.w3.org/2000/svg">
<path d="M182.529 81.4661C182.529 91.7311 179.972 101.529 174.858 110.861C169.707 120.193 162.783 128.367 154.086 135.385C145.426 142.365 135.273 147.908 123.627 152.014C111.944 156.12 99.5697 158.173 86.5053 158.173C81.8394 158.173 78.1627 157.557 75.4752 156.325C72.7503 155.131 69.7081 152.761 66.3487 149.215C57.017 169.558 49.4209 188.259 43.5606 205.317C37.6629 222.413 33.0344 238.986 29.675 255.037C22.5828 253.357 16.7971 250.427 12.3179 246.246C7.83866 242.028 3.7327 236.746 0 230.401C1.86635 226.855 4.10597 222.189 6.71886 216.403C9.33174 210.618 12.5045 203.469 16.2372 194.959C19.9699 186.486 24.3185 176.314 29.283 164.444C34.2102 152.611 40.0332 138.763 46.752 122.899C49.7382 115.62 52.3511 109.275 54.5907 103.862C56.8303 98.4499 58.79 93.3548 60.4697 88.5769C62.1494 83.8364 63.6985 79.1332 65.1169 74.4673C66.498 69.8015 67.9351 64.669 69.4282 59.0699C60.6563 61.8695 52.5937 65.1356 45.2403 68.8683C37.8496 72.601 31.7279 76.5203 26.8754 80.6263C25.1957 79.5065 23.4787 77.8268 21.7243 75.5871C19.9326 73.3475 18.2902 70.8653 16.7971 68.1404C15.3041 65.4529 13.9976 62.7093 12.8778 59.9098C11.758 57.1103 11.1048 54.5907 10.9181 52.3511C16.3306 48.6184 23.0494 45.1656 31.0747 41.9929C39.1 38.8201 47.6852 36.0579 56.8303 33.7063C65.9754 31.392 75.4565 29.5816 85.2735 28.2752C95.0532 26.9687 104.422 26.3155 113.381 26.3155C124.019 26.3155 133.631 27.6593 142.216 30.3468C150.801 33.0717 158.08 36.8604 164.052 41.7129C170.024 46.5654 174.597 52.3511 177.77 59.0699C180.943 65.7888 182.529 73.2542 182.529 81.4661ZM132.697 47.8718C125.605 47.8718 118.327 48.4317 110.861 49.5516L114.221 54.5907C112.354 57.017 110.021 60.6563 107.222 65.5089C104.422 70.3614 101.343 76.1844 97.9833 82.9779C94.6239 89.8087 90.9472 97.4234 86.9532 105.822C82.9219 114.221 78.6666 123.086 74.1874 132.417C88.7449 132.417 101.996 131.074 113.941 128.386C125.885 125.661 136.113 121.91 144.623 117.132C153.097 112.392 159.722 106.848 164.5 100.503C169.241 94.1573 171.611 87.3451 171.611 80.0664C171.611 70.3614 168.345 62.56 161.812 56.6624C155.28 50.802 145.575 47.8718 132.697 47.8718ZM167.971 213.604C167.971 211.924 168.102 209.815 168.363 207.277C168.662 204.776 169.185 201.416 169.931 197.198C170.678 193.018 171.648 187.941 172.843 181.969C174.074 175.997 175.623 168.811 177.49 160.413C177.863 158.546 178.703 155.56 180.009 151.454C181.316 147.348 183.033 143 185.16 138.408C187.325 133.855 189.938 129.431 192.999 125.139C196.097 120.846 199.793 117.673 204.085 115.62C207.258 116.367 211.457 118.271 216.683 121.331C221.909 124.429 226.388 128.685 230.121 134.097C225.828 138.95 222.226 143.802 219.315 148.655C216.44 153.507 213.828 158.546 211.476 163.772C209.162 168.998 207.015 174.41 205.037 180.009C203.096 185.608 200.912 191.487 198.486 197.646C196.433 202.872 194.567 208.229 192.887 213.716C191.207 219.24 190.274 224.055 190.088 228.161C190.088 231.521 190.032 233.91 189.92 235.328C189.845 236.709 189.341 237.4 188.408 237.4C187.661 237.4 186.168 236.933 183.929 236C181.689 235.067 179.393 233.611 177.042 231.633C174.728 229.692 172.637 227.228 170.771 224.242C168.905 221.256 167.971 217.71 167.971 213.604ZM221.442 92.1043C221.442 90.9845 221.722 89.3048 222.282 87.0652C221.349 86.132 220.546 84.7322 219.875 82.8659C219.24 80.9995 218.923 79.3198 218.923 77.8268C218.923 76.147 219.147 73.8514 219.595 70.9399C220.08 68.0658 220.696 64.9489 221.442 61.5895C222.189 58.2301 223.122 54.7213 224.242 51.0633C225.362 47.4426 226.481 44.1391 227.601 41.153C229.841 41.153 232.584 41.7502 235.832 42.9447C239.117 44.1765 242.439 45.7629 245.798 47.7039C249.158 49.6822 252.237 51.8285 255.037 54.1428C257.836 56.4944 259.982 58.6967 261.476 60.7497C259.423 62.8026 256.716 65.6395 253.357 69.2602C249.997 72.9183 246.731 76.7443 243.559 80.7383C240.386 84.7696 237.493 88.5583 234.88 92.1043C232.267 95.6504 230.587 98.17 229.841 99.663C227.601 99.2898 225.642 98.3006 223.962 96.6955C222.282 95.1278 221.442 93.5974 221.442 92.1043ZM235.44 183.089C235.44 172.451 237.624 162.13 241.991 152.126C246.395 142.16 252.181 133.313 259.348 125.587C266.552 117.823 274.764 111.552 283.984 106.774C293.241 102.033 302.796 99.663 312.651 99.663C322.393 99.663 329.859 102.089 335.047 106.942C340.31 111.794 342.942 118.7 342.942 127.658C342.942 131.951 342.326 136.094 341.094 140.088C339.862 144.119 338.276 147.722 336.335 150.894C334.394 154.067 332.098 156.624 329.448 158.565C326.872 160.543 324.278 161.533 321.665 161.533C319.426 161.533 317.13 160.823 314.778 159.405C312.427 158.024 310.523 156.213 309.067 153.974C321.572 142.589 327.824 132.231 327.824 122.899C327.824 117.487 325.678 114.78 321.385 114.78C317.653 114.78 312.987 116.554 307.388 120.1C301.789 123.646 296.376 128.312 291.15 134.097C283.125 143.056 277.004 152.985 272.786 163.884C268.605 174.821 266.515 186.262 266.515 198.206C266.515 213.324 269.874 222.375 276.593 225.362C279.392 224.988 282.659 224.149 286.391 222.842C290.124 221.536 294.137 219.8 298.429 217.635C302.722 215.507 307.145 213.044 311.699 210.244C316.29 207.445 320.732 204.459 325.025 201.286C325.771 201.846 326.424 202.686 326.984 203.805C327.544 204.925 327.824 205.952 327.824 206.885C324.651 210.804 321.012 214.63 316.906 218.363C312.8 222.096 308.507 225.492 304.028 228.553C299.512 231.651 295.163 234.283 290.982 236.448C286.802 238.575 283.125 239.919 279.952 240.479C273.793 239.919 268.008 238.015 262.595 234.768C257.183 231.483 252.461 227.228 248.43 222.002C244.436 216.776 241.263 210.804 238.911 204.085C236.597 197.366 235.44 190.368 235.44 183.089ZM382.639 125.139H366.682C365.748 124.019 364.909 121.63 364.162 117.972C363.415 114.351 363.042 111.234 363.042 108.622C367.895 108.995 372.561 109.312 377.04 109.573C381.519 109.872 385.625 110.115 389.358 110.301C392.157 104.702 395.199 99.1405 398.484 93.6161C401.732 88.129 404.904 83.0899 408.003 78.4986C411.063 73.9448 413.956 70.0814 416.681 66.9086C419.369 63.7358 421.459 61.6828 422.952 60.7497C424.818 60.7497 427.207 61.0669 430.119 61.7015C432.993 62.3734 435.923 63.2132 438.909 64.2211C441.895 65.2662 444.602 66.3487 447.028 67.4685C449.454 68.5883 451.134 69.7081 452.067 70.8279C446.468 77.9201 441.671 84.4896 437.678 90.5366C433.646 96.6209 429.298 103.582 424.632 111.421C428.364 111.421 432.153 111.328 435.998 111.141C439.805 110.954 443.669 110.675 447.588 110.301C448.521 111.234 449.268 112.392 449.827 113.773C450.387 115.191 450.667 116.647 450.667 118.14C441.522 121.499 430.417 123.366 417.353 123.739C412.687 132.697 408.544 141.6 404.923 150.446C401.265 159.33 398.186 167.878 395.685 176.09C393.146 184.302 391.187 192.047 389.806 199.326C388.387 206.605 387.678 213.137 387.678 218.923C387.678 227.135 390.757 231.707 396.916 232.64C402.515 231.894 407.835 230.494 412.874 228.441C417.913 226.388 422.392 223.775 426.311 220.602C427.431 222.282 428.084 223.682 428.271 224.802C427.151 226.481 425.248 228.441 422.56 230.681C419.835 232.92 416.886 235.123 413.714 237.288C410.541 239.415 407.461 241.226 404.475 242.719C401.489 244.212 399.249 245.052 397.756 245.238C393.09 245.052 388.425 244.025 383.759 242.159C379.093 240.292 374.856 237.96 371.049 235.16C367.204 232.36 364.069 229.225 361.642 225.754C359.216 222.319 358.003 218.923 358.003 215.563C358.003 211.084 358.619 205.429 359.851 198.598C361.045 191.805 362.762 184.395 365.002 176.37C367.242 168.345 369.854 159.946 372.841 151.174C375.827 142.402 379.093 133.724 382.639 125.139ZM481.742 242.159C471.104 241.039 462.612 236.373 456.266 228.161C449.921 219.949 446.748 209.498 446.748 196.807C446.748 189.341 447.868 181.596 450.107 173.57C452.347 165.545 455.52 157.744 459.626 150.166C463.732 142.626 468.584 135.497 474.183 128.778C479.782 122.059 485.848 116.274 492.38 111.421C502.645 103.769 512.257 99.943 521.215 99.943C527.188 103.116 533.067 109.741 538.852 119.82C539.785 119.82 540.625 119.764 541.372 119.652C542.118 119.577 542.958 119.54 543.891 119.54C553.783 119.54 558.729 128.311 558.729 145.855C558.729 157.613 556.825 168.774 553.018 179.337C549.173 189.864 543.854 199.419 537.061 208.005C530.23 216.59 522.111 223.813 512.705 229.673C503.261 235.571 492.94 239.733 481.742 242.159ZM496.02 153.974C492.847 158.266 489.861 162.932 487.061 167.971C484.262 173.011 481.835 178.087 479.782 183.201C477.729 188.352 476.143 193.298 475.023 198.038C473.903 202.816 473.343 207.071 473.343 210.804C473.343 215.283 474.09 219.576 475.583 223.682C477.076 227.788 478.756 230.121 480.622 230.681C489.021 228.814 496.729 225.306 503.746 220.155C510.726 215.041 516.792 208.658 521.943 201.006C527.057 193.354 531.07 184.675 533.981 174.97C536.855 165.265 538.292 154.907 538.292 143.896C538.292 139.043 538.012 135.217 537.453 132.417C536.893 129.618 535.959 127.192 534.653 125.139C526.441 127.565 519.125 131.484 512.705 136.897C506.247 142.309 500.685 148.001 496.02 153.974ZM565.448 226.761C566.381 221.349 568.005 214.201 570.319 205.317C572.671 196.471 575.433 187.045 578.606 177.042C581.778 167.076 585.138 157.053 588.684 146.975C592.23 136.897 595.683 127.845 599.042 119.82C601.468 114.034 603.615 109.499 605.481 106.214C607.347 102.966 609.4 100.223 611.64 97.9833C614.253 98.3566 616.959 99.0098 619.759 99.943C622.558 100.876 625.264 101.996 627.877 103.302C630.49 104.609 632.823 105.953 634.876 107.334C636.929 108.752 638.515 110.115 639.635 111.421C634.596 117.393 630.154 124.206 626.309 131.858C622.502 139.51 618.639 149.308 614.719 161.253C624.798 152.294 633.7 143.709 641.427 135.497C649.191 127.285 656.432 118.14 663.151 108.062C664.271 107.128 666.231 106.662 669.03 106.662C671.643 106.662 674.163 107.072 676.589 107.894C679.015 108.752 680.695 109.928 681.628 111.421C678.269 120.38 676.589 129.245 676.589 138.017C676.589 146.228 677.802 152.387 680.228 156.493C680.042 157.613 678.772 159.759 676.421 162.932C674.107 166.105 671.55 169.091 668.75 171.891C663.711 169.278 659.232 165.676 655.312 161.085C651.393 156.531 648.5 151.548 646.634 146.135C637.862 152.294 630.397 158.304 624.238 164.164C618.079 170.062 612.797 176.594 608.392 183.761C604.025 190.965 600.293 199.233 597.194 208.565C594.134 217.896 591.203 229.001 588.404 241.879C586.724 241.692 584.709 241.095 582.357 240.087C580.043 239.042 577.71 237.773 575.358 236.28C573.044 234.787 570.954 233.2 569.087 231.521C567.221 229.841 566.008 228.254 565.448 226.761ZM685.267 213.604C685.267 211.924 685.398 209.815 685.659 207.277C685.958 204.776 686.481 201.416 687.227 197.198C687.974 193.018 688.944 187.941 690.139 181.969C691.37 175.997 692.919 168.811 694.786 160.413C695.159 158.546 695.999 155.56 697.305 151.454C698.612 147.348 700.329 143 702.456 138.408C704.621 133.855 707.234 129.431 710.295 125.139C713.393 120.846 717.089 117.673 721.381 115.62C724.554 116.367 728.753 118.271 733.979 121.331C739.205 124.429 743.684 128.685 747.417 134.097C743.124 138.95 739.522 143.802 736.611 148.655C733.736 153.507 731.124 158.546 728.772 163.772C726.458 168.998 724.311 174.41 722.333 180.009C720.392 185.608 718.208 191.487 715.782 197.646C713.729 202.872 711.863 208.229 710.183 213.716C708.503 219.24 707.57 224.055 707.384 228.161C707.384 231.521 707.328 233.91 707.216 235.328C707.141 236.709 706.637 237.4 705.704 237.4C704.957 237.4 703.464 236.933 701.225 236C698.985 235.067 696.689 233.611 694.338 231.633C692.024 229.692 689.933 227.228 688.067 224.242C686.201 221.256 685.267 217.71 685.267 213.604ZM738.738 92.1043C738.738 90.9845 739.018 89.3048 739.578 87.0652C738.645 86.132 737.842 84.7322 737.171 82.8659C736.536 80.9995 736.219 79.3198 736.219 77.8268C736.219 76.147 736.443 73.8514 736.891 70.9399C737.376 68.0658 737.992 64.9489 738.738 61.5895C739.485 58.2301 740.418 54.7213 741.538 51.0633C742.658 47.4426 743.777 44.1391 744.897 41.153C747.137 41.153 749.88 41.7502 753.128 42.9447C756.413 44.1765 759.735 45.7629 763.094 47.7039C766.454 49.6822 769.533 51.8285 772.333 54.1428C775.132 56.4944 777.278 58.6967 778.771 60.7497C776.718 62.8026 774.012 65.6395 770.653 69.2602C767.293 72.9183 764.027 76.7443 760.855 80.7383C757.682 84.7696 754.789 88.5583 752.176 92.1043C749.563 95.6504 747.883 98.17 747.137 99.663C744.897 99.2898 742.938 98.3006 741.258 96.6955C739.578 95.1278 738.738 93.5974 738.738 92.1043ZM847.584 119.26C849.45 119.26 851.652 119.577 854.191 120.212C856.692 120.883 858.968 121.723 861.021 122.731C863.074 123.776 864.81 124.859 866.229 125.979C867.61 127.098 868.3 128.125 868.3 129.058C864.568 136.897 861.115 144.773 857.942 152.686C854.769 160.637 852.063 168.251 849.823 175.53C847.584 182.809 845.867 189.621 844.672 195.967C843.44 202.312 842.825 207.818 842.825 212.484C842.825 217.71 843.384 222.04 844.504 225.474C845.624 228.945 847.49 231.427 850.103 232.92C847.864 234.413 844.971 235.627 841.425 236.56C837.879 237.493 834.706 237.96 831.906 237.96C821.828 237.96 816.789 231.054 816.789 217.243C816.789 206.605 820.335 192.047 827.427 173.57C823.694 182.156 819.402 190.218 814.549 197.758C809.697 205.336 804.751 212.017 799.712 217.803C794.673 223.589 789.596 228.292 784.483 231.913C779.331 235.571 774.61 237.773 770.317 238.519C763.411 238.146 757.812 234.824 753.52 228.553C749.227 222.319 747.081 214.35 747.081 204.645C747.081 194.194 749.321 183.182 753.8 171.611C758.279 160.039 764.027 149.308 771.045 139.416C778.025 129.525 785.621 121.257 793.833 114.612C802.045 108.006 809.977 104.516 817.629 104.142C819.495 104.702 821.604 105.822 823.956 107.502C826.27 109.181 828.51 111.141 830.675 113.381C832.802 115.62 834.613 117.897 836.106 120.212C837.599 122.563 838.439 124.579 838.625 126.259C831.16 127.378 823.471 131.018 815.557 137.177C807.607 143.336 800.421 150.745 794.001 159.405C787.543 168.102 782.262 177.396 778.156 187.288C774.05 197.18 771.997 206.418 771.997 215.003C771.997 218.549 773.303 220.789 775.916 221.722C781.328 220.602 787.581 215.974 794.673 207.837C801.765 199.737 810.35 187.195 820.428 170.211C822.295 166.852 824.404 163.119 826.755 159.013C829.07 154.907 831.44 150.614 833.866 146.135C836.292 141.656 838.681 137.139 841.033 132.585C843.347 127.994 845.531 123.552 847.584 119.26ZM882.298 214.444C882.298 206.232 884.258 194.698 888.177 179.841C892.096 165.023 897.602 147.722 904.694 127.938C916.265 96.3969 927.146 70.1187 937.337 49.1036C947.489 28.1259 957.418 11.758 967.123 0C969.363 0.37327 972.125 1.30644 975.41 2.79952C978.657 4.2926 981.868 5.91632 985.04 7.67069C988.213 9.46238 991.069 11.2914 993.607 13.1578C996.108 15.0241 997.732 16.5172 998.478 17.637C983.921 34.8074 971.136 53.2843 960.125 73.0676C949.113 92.8509 939.035 115.527 929.89 141.096C922.051 163.119 916.079 182.94 911.973 200.558C907.867 218.214 905.814 232.92 905.814 244.678C905.814 247.851 905.814 249.811 905.814 250.557C905.814 251.304 905.907 252.05 906.094 252.797C903.481 252.424 901.241 251.77 899.375 250.837C897.509 249.904 896.295 248.784 895.736 247.478C895.362 246.545 894.336 245.201 892.656 243.447C890.976 241.655 889.483 240.292 888.177 239.359C886.497 238.239 885.097 235.291 883.978 230.513C882.858 225.772 882.298 220.416 882.298 214.444Z" fill="#F9CC0B"/>
</svg>
